<svg width="763" height="374" viewBox="0 0 763 374" fill="none" xmlns="http://www.w3.org/2000/svg">
<path d="M754.378 373.135L3.93781 369.415C0.514994 369.401 -1.26554 365.335 1.0368 362.801L46.3162 313.188C50.9669 308.094 57.5362 305.201 64.4279 305.201H702.207C709.743 305.201 716.865 308.548 721.7 314.334L760.257 360.654C764.401 365.615 760.84 373.161 754.378 373.135Z" fill="#E1E2E9"/>
<path d="M521.463 110.926C522.599 109.236 530.482 100.786 530.482 72.0595C530.482 43.333 580.613 17.987 580.613 17.987C580.613 17.987 589.618 19.1133 594.135 25.8713C598.637 32.6322 600.335 45.5872 599.198 47.8398C598.076 50.0939 594.135 51.7827 595.818 54.5992C597.501 57.4158 604.837 70.3707 602.003 70.9331C599.198 71.497 594.696 72.0595 595.257 74.876C595.818 77.694 597.587 78.8203 596.321 79.8762C595.055 80.932 592.927 82.4482 593.358 82.9574C593.79 83.4666 595.055 85.7898 594.192 86.8471C593.358 87.9029 591.531 87.4785 590.74 89.5917C589.963 91.7034 590.611 98.2528 586.597 98.4642C582.584 98.6742 565.049 95.9282 563.351 97.8299C561.683 99.7301 562.057 106.068 562.057 106.068L521.463 110.926Z" fill="#EFCAA6"/>
<path d="M314.182 316.521C314.875 310.695 315.755 300.321 316.355 293.055C313.155 293.375 310.662 293.335 309.115 292.854C294.475 288.348 243.782 287.788 238.702 289.482C233.635 291.175 163.795 305.255 157.595 301.868C151.408 298.495 148.582 287.228 140.142 288.922C131.688 290.601 126.048 300.668 123.795 302.388C121.542 304.121 107.462 321.588 97.8883 323.282C88.315 324.961 66.0616 327.788 73.5283 332.854C80.9949 337.922 123.795 336.801 132.248 335.668C140.702 334.548 164.355 326.095 197.022 328.348C229.688 330.601 278.702 327.788 282.648 328.908C286.582 330.041 286.022 336.468 305.168 336.628C307.635 336.654 311.768 336.722 317.115 336.815C316.008 333.482 313.275 324.215 314.182 316.521Z" fill="#EFCAA6"/>
<path d="M513.572 219.842C513.358 232.202 512.589 241.442 510.764 243.149C509.709 244.135 508.597 244.909 507.457 245.549C517.008 257.709 532.659 278.255 544.362 296.762C553.257 286.549 568.452 266.788 569.336 264.135C570.092 261.895 577.518 238.082 583.605 221.162C571.118 222.561 555.238 224.135 547.384 224.135C539.216 224.135 524.634 222.815 513.572 219.842Z" fill="#EFCAA6"/>
<path d="M525.964 183.589C539.107 183.119 568.639 164.276 581.084 145.624C574.733 133.316 569.336 123.319 569.336 123.319L521.45 126.98C521.45 126.98 514.132 133.034 512.437 137.4C511.711 139.322 512.523 158.926 513.121 180.766C516.865 182.541 521.223 183.757 525.964 183.589Z" fill="#EFCAA6"/>
<path d="M493.869 247.801C492.188 247.374 476.142 240.201 457.966 243.148C439.804 246.108 422.805 262.588 422.805 262.588C422.805 262.588 343.557 290.415 316.356 293.055C315.767 300.321 314.884 310.694 314.184 316.521C313.287 324.215 316.019 333.482 317.127 336.815C353.422 337.482 446.194 339.428 458.947 336.628C473.605 333.415 510.195 318.775 510.195 318.775C510.195 318.775 533.865 306.375 538.938 302.441C540.017 301.601 541.965 299.521 544.375 296.761C532.674 278.255 517.02 257.708 507.463 245.548C501.689 248.788 495.285 248.148 493.869 247.801Z" fill="#667FF3"/>
<path d="M601.216 189.783C600.699 184.531 589.951 162.821 581.086 145.624C568.643 164.277 539.103 183.118 525.956 183.589C521.214 183.757 516.861 182.54 513.125 180.766C513.484 194.139 513.772 208.341 513.57 219.843C524.634 222.815 539.218 224.136 547.379 224.136C555.238 224.136 571.115 222.562 583.601 221.162C586.675 212.575 589.42 205.755 590.727 204.428C594.679 200.484 602.121 198.796 601.216 189.783Z" fill="#667FF3"/>
<path d="M590.733 21.931C590.461 19.0127 589.561 14.3128 586.229 10.1034C580.91 3.35751 572.817 2.21508 564.825 1.0898C556.432 -0.0926631 546.537 -1.48818 537.787 3.90799C537.787 3.90799 535.399 5.38358 523.145 19.1156C523.145 19.1156 518.084 8.28898 512.436 12.8573C506.817 17.4241 507.374 21.931 507.374 21.931C507.374 21.931 498.366 22.4957 498.938 27.5645C499.496 32.6332 500.611 42.7721 507.946 43.3354C511.878 43.3354 505.687 54.0377 509.633 60.2332C513.58 66.43 525.962 77.1323 527.649 81.0743C529.351 85.0178 531.595 81.6376 539.474 81.0743C544.821 80.5109 533.855 64.7399 541.175 57.4178C548.496 50.0957 552.442 45.5889 559.763 48.9676C567.084 52.3477 567.084 52.3476 567.084 52.3476C567.084 52.3476 567.084 44.5336 572.717 43.3712C573.404 43.2296 573.847 42.9637 574.133 42.5934C576.95 38.8529 572.674 31.791 574.976 27.0011C576.177 24.4832 579.824 21.9224 590.733 21.931Z" fill="#5B453B"/>
<mask id="mask0_214_6868" style="mask-type:luminance" maskUnits="userSpaceOnUse" x="498" y="0" width="93" height="83">
<path d="M590.742 21.9293C590.476 19.0107 589.569 14.3107 586.249 10.1013C580.916 3.35468 572.822 2.21333 564.836 1.088C556.436 -0.0946653 546.542 -1.48931 537.796 3.90535C537.796 3.90535 535.409 5.38136 523.156 19.1134C523.156 19.1134 518.089 8.288 512.449 12.856C506.822 17.424 507.382 21.9293 507.382 21.9293C507.382 21.9293 498.369 22.4933 498.942 27.5627C499.502 32.632 500.622 42.7707 507.956 43.3333C511.889 43.3333 505.689 54.0373 509.636 60.232C513.582 66.428 525.969 77.1294 527.662 81.0734C529.356 85.016 531.609 81.636 539.489 81.0734C544.836 80.5094 533.862 64.7387 541.182 57.4147C548.502 50.0947 552.449 45.5867 559.769 48.9667C567.089 52.3467 567.089 52.3467 567.089 52.3467C567.089 52.3467 567.089 44.532 572.729 43.3694C573.409 43.228 573.862 42.9627 574.142 42.592C576.956 38.8507 572.689 31.7893 574.982 26.9987C576.182 24.4813 579.836 21.92 590.742 21.9293Z" fill="white"/>
</mask>
<g mask="url(#mask0_214_6868)">
<path d="M526.249 7.84017C527.446 9.98143 527.863 12.2883 527.947 14.5701C527.989 16.8477 527.808 19.1754 526.848 21.2833C525.902 23.4009 524.288 25.2096 523.23 27.1421C522.701 28.1202 522.256 29.1137 521.825 30.1405C521.435 31.1909 521.032 32.2289 520.684 33.3405C520.281 34.4146 519.877 35.5194 519.348 36.5476C518.792 37.5591 518.166 38.5413 517.456 39.4638C516.079 41.324 514.534 43.1021 512.656 44.4809C508.886 47.1899 504.336 48.8901 499.605 48.6786L499.383 48.1304C502.708 44.8399 505.769 42.2729 508.732 39.5834C510.235 38.2686 511.835 37.086 513.352 35.7448C514.785 34.3548 516.343 33.0205 517.971 31.6041C519.515 30.1432 520.879 28.4222 521.491 26.3867C522.187 24.3762 521.978 22.0874 522.103 20.0338C522.201 19.0042 522.368 18.0053 522.646 17.0244C522.854 16.031 523.133 15.0431 523.411 14.0441C523.995 12.0434 524.635 10.0301 525.665 7.85964L526.249 7.84017Z" fill="#D2948B"/>
</g>
<path d="M512.449 137.4C512.449 137.4 516.404 114.868 521.464 110.925C526.554 106.981 540.345 99.6589 554.435 103.32C568.51 106.981 573.569 114.868 575.823 122.192C578.077 129.513 579.495 140.215 578.928 145.285C578.361 150.354 577.808 157.114 578.644 162.184C579.495 167.252 586.54 209.496 587.376 212.308C588.212 215.134 594.973 222.174 598.645 242.454C602.316 262.721 616.391 325.255 620.899 326.094C625.406 326.935 647.078 324.401 653.839 326.094C660.601 327.788 684.541 333.695 688.765 336.508C692.989 339.335 685.392 342.428 681.72 341.588C678.049 340.735 651.033 341.588 645.108 341.722C639.197 341.868 616.675 351.161 611.6 341.722C606.525 332.295 580.614 291.175 575.271 263.294C569.913 235.401 559.211 216.255 558.942 215.694C558.659 215.134 536.957 145.989 536.957 145.989L512.449 137.4Z" fill="#EFCAA6"/>
</svg>
