<svg width="49" height="51" viewBox="0 0 49 51" fill="none" xmlns="http://www.w3.org/2000/svg">
<path d="M37.1638 35.5598C37.1638 42.6607 32.1827 51 24.2686 51C19.3646 51 15.3288 47.998 12.9696 43.9836C11.5189 41.5197 10.7007 38.673 10.7007 35.9065C10.7007 28.6331 18.6397 28.9798 23.6709 28.9798C29.189 28.9798 35.7393 28.5563 36.9607 33.6953C37.0943 34.2498 37.1638 34.869 37.1638 35.5598Z" fill="#667FF3"/>
<path d="M37.1634 35.5598C37.1634 42.6607 32.1823 51 24.2682 51C19.3642 51 15.3284 47.998 12.9692 43.9836C17.8842 46.2974 31.8845 51.0897 36.9603 33.6953C37.0939 34.2498 37.1634 34.869 37.1634 35.5598Z" fill="#4B5CAA"/>
<path d="M48.1132 40.7117C48.0339 43.975 47.2733 45.9671 45.1076 44.9305C44.7359 44.752 44.3219 44.4846 43.8634 44.1198C42.3269 42.8944 35.6331 29.9465 40.3633 29.8353C41.5857 29.8077 42.6996 30.2647 43.6786 31.0245C46.4876 33.2055 48.1828 37.8762 48.1132 40.7117Z" fill="#667FF3"/>
<path d="M48.1128 40.7117C48.0335 43.975 47.2728 45.9671 45.1072 44.9305C45.8081 43.2049 46.4296 39.2241 43.6782 31.0245C46.4872 33.2055 48.1824 37.8762 48.1128 40.7117Z" fill="#4B5CAA"/>
<path d="M0.0020113 40.699C0.0813513 43.9623 0.841978 45.9544 3.00761 44.9178C3.3793 44.7393 3.79333 44.472 4.25186 44.1072C5.78838 42.8817 12.4821 29.9338 7.75195 29.8226C6.52951 29.795 5.41565 30.2521 4.43658 31.0118C1.62761 33.1928 -0.0675831 37.8635 0.0020113 40.699Z" fill="#667FF3"/>
<path d="M0.00195074 40.699C0.0812902 43.9623 0.841917 45.9544 3.00755 44.9178C2.30668 43.1922 1.68516 39.2114 4.43652 31.0118C1.62755 33.1928 -0.0676441 37.8635 0.00195074 40.699Z" fill="#4B5CAA"/>
<path d="M37.9389 19.7042C37.4314 26.739 21.3023 29.064 13.7575 24.8118C11.6614 23.6299 10.2281 21.9403 9.976 19.7042C8.81659 9.41784 15.6266 1.14441e-05 23.4506 1.14441e-05C26.2867 1.14441e-05 29.6173 1.08506 32.3752 3.49011C35.9101 6.56838 38.5094 11.8106 37.9389 19.7042Z" fill="#667FF3"/>
<path d="M33.7526 13.4913C33.7526 14.9031 32.203 15.7723 30.2058 16.2881C28.102 16.8331 25.5017 16.9857 23.6913 16.9685C21.0997 16.9435 16.101 16.4942 14.2984 14.8522C13.8756 14.4676 13.6289 14.0165 13.6289 13.4913C13.6289 11.9623 14.2657 10.5782 15.2958 9.57522C16.326 8.57313 17.7496 7.95393 19.322 7.95393H28.0597C29.8874 7.95393 31.5141 8.79132 32.5551 10.0935C33.306 11.0327 33.7526 12.2115 33.7526 13.4913Z" fill="#40519C"/>
<path d="M33.7521 13.4913C33.7521 14.9031 32.2025 15.7723 30.2053 16.2881C28.1015 16.8331 25.5011 16.9857 23.6908 16.9685C21.0992 16.9435 16.1005 16.4942 14.2979 14.8522C19.4311 14.6978 28.1569 13.8553 32.5546 10.0935C33.3055 11.0327 33.7521 12.2115 33.7521 13.4913Z" fill="#344284"/>
<path d="M23.9318 23.3156C22.2735 23.3156 20.9837 22.7275 20.0492 21.9695C18.3714 20.6103 17.8378 18.701 18.3757 18.6587C19.2125 18.5941 21.2086 19.5927 23.4623 19.5927C26.0518 19.5927 27.8165 18.9408 29.1477 18.8864C29.2075 18.883 29.265 18.8821 29.3226 18.8821C30.6744 18.8821 29.0195 23.3156 23.9318 23.3156Z" fill="#40519C"/>
<path d="M37.9386 19.7048C37.4311 26.7402 21.302 29.0643 13.7573 24.8118C18.3669 25.5768 32.0892 27.2567 34.558 20.6457C36.6813 14.9608 34.056 7.37436 32.3749 3.49103C35.9098 6.56975 38.5091 11.8114 37.9386 19.7048Z" fill="#4B5CAA"/>
<path d="M31.9663 12.3012C31.9663 13.706 30.8276 14.8444 29.423 14.8444C28.3372 14.8444 27.4107 14.1657 27.0457 13.2084C26.9382 12.9264 26.8789 12.6211 26.8789 12.3012C26.8789 10.8964 28.0175 9.758 29.423 9.758C30.457 9.758 31.3464 10.3746 31.7429 11.2603C31.8865 11.5785 31.9663 11.9304 31.9663 12.3012Z" fill="#393760"/>
<path d="M29.4232 9.32333C27.7807 9.32333 26.4443 10.6592 26.4443 12.3012C26.4443 12.666 26.51 13.0238 26.6397 13.3636C27.0767 14.5089 28.1954 15.279 29.4232 15.279C31.0652 15.279 32.4011 13.9432 32.4011 12.3012C32.4011 11.8769 32.313 11.4664 32.1392 11.0817C31.6613 10.0141 30.5948 9.32333 29.4232 9.32333ZM29.4228 9.75798C30.4567 9.75798 31.3466 10.3746 31.7431 11.2603C31.8867 11.5785 31.9665 11.9303 31.9665 12.3012C31.9665 13.706 30.8278 14.8443 29.4232 14.8443C28.3374 14.8443 27.4108 14.1656 27.0458 13.2084C26.9383 12.9264 26.8791 12.6211 26.8791 12.3012C26.8791 10.8963 28.0172 9.75798 29.4228 9.75798Z" fill="#46AED2"/>
<path d="M31.7407 11.2559C30.7913 13.5507 28.4362 13.4826 27.0512 13.2153C26.9428 12.9341 26.8824 12.6289 26.8814 12.3089C26.8767 10.9049 28.0115 9.76228 29.417 9.7571C30.451 9.75452 31.3412 10.3711 31.7407 11.2559Z" fill="#2F4572"/>
<path d="M29.3117 11.4569C29.3117 11.9234 28.9337 12.3012 28.4673 12.3012C28.0011 12.3012 27.623 11.9234 27.623 11.4569C27.623 10.9903 28.0011 10.6126 28.4673 10.6126C28.9337 10.6126 29.3117 10.9903 29.3117 11.4569Z" fill="#C5CAE2"/>
<path d="M31.4169 12.7953C31.5551 12.8876 31.3669 13.7741 30.7375 14.1131C30.1781 14.414 29.437 14.1933 29.4197 14.0303C29.4071 13.9104 29.7912 13.8776 30.4337 13.4887C31.1098 13.0791 31.3207 12.7307 31.4169 12.7953Z" fill="#C5CAE2"/>
<path d="M20.6831 12.3012C20.6831 13.7052 19.5445 14.8444 18.1398 14.8444C17.054 14.8444 16.1275 14.1648 15.7625 13.2084C15.655 12.9264 15.5957 12.6203 15.5957 12.3012C15.5957 10.8964 16.7344 9.758 18.1398 9.758C19.1738 9.758 20.0633 10.3746 20.4598 11.2603C20.6034 11.5785 20.6831 11.9304 20.6831 12.3012Z" fill="#393760"/>
<path d="M18.1399 9.32334C16.4974 9.32334 15.1611 10.6592 15.1611 12.3012C15.1611 12.666 15.2268 13.023 15.3565 13.3628C15.7935 14.5089 16.9121 15.279 18.1399 15.279C19.782 15.279 21.1179 13.9432 21.1179 12.3012C21.1179 11.876 21.0298 11.4664 20.856 11.0817C20.3781 10.0141 19.3116 9.32334 18.1399 9.32334ZM18.1395 9.75798C19.1735 9.75798 20.0634 10.3746 20.4599 11.2603C20.6035 11.5785 20.6832 11.9303 20.6832 12.3012C20.6832 13.7051 19.5446 14.8443 18.1399 14.8443C17.0541 14.8443 16.1276 14.1648 15.7626 13.2084C15.6551 12.9264 15.5958 12.6203 15.5958 12.3012C15.5958 10.8963 16.734 9.75798 18.1395 9.75798Z" fill="#46AED2"/>
<path d="M20.458 11.2551C19.5086 13.5508 17.1535 13.4826 15.7685 13.2153C15.66 12.9342 15.5998 12.6289 15.5986 12.3089C15.594 10.9041 16.7289 9.7623 18.1343 9.75712C19.1683 9.75367 20.0586 10.3711 20.458 11.2551Z" fill="#2F4572"/>
<path d="M18.0289 11.4569C18.0289 11.9234 17.6509 12.3012 17.1846 12.3012C16.7183 12.3012 16.3403 11.9234 16.3403 11.4569C16.3403 10.9903 16.7183 10.6126 17.1846 10.6126C17.6509 10.6126 18.0289 10.9903 18.0289 11.4569Z" fill="#C5CAE2"/>
<path d="M20.1346 12.7944C20.2728 12.8876 20.0846 13.7733 19.4552 14.1122C18.8958 14.414 18.1548 14.1932 18.1375 14.0303C18.1248 13.9104 18.5089 13.8776 19.1513 13.4887C19.8275 13.079 20.0385 12.7298 20.1346 12.7944Z" fill="#C5CAE2"/>
<path d="M23.9315 23.3156C22.2732 23.3156 20.9834 22.7275 20.0488 21.9695C22.3004 21.6728 26.7252 20.863 29.1474 18.8864C29.2071 18.883 29.2647 18.8821 29.3223 18.8821C30.6741 18.8821 29.0191 23.3156 23.9315 23.3156Z" fill="#344284"/>
<mask id="mask0_446_6350" style="mask-type:alpha" maskUnits="userSpaceOnUse" x="18" y="31" width="12" height="13">
<path d="M29.6232 37.369H23.8264V43.1052H18.1104V31.9559H29.6232V37.369Z" fill="#B4F048"/>
</mask>
<g mask="url(#mask0_446_6350)">
<path fill-rule="evenodd" clip-rule="evenodd" d="M21.281 32.4609C20.6651 32.4609 18.938 32.4609 18.938 32.4609C18.938 32.4609 18.938 34.1257 18.938 34.8039V39.8938C18.938 41.1878 19.987 42.2368 21.281 42.2368H26.3709C27.6649 42.2368 28.7138 41.1878 28.7138 39.8938V34.8039C28.7138 33.5099 27.6649 32.4609 26.3709 32.4609H21.281ZM26.3305 34.8443H21.3618V39.813H26.3305V34.8443Z" fill="#B4F048"/>
</g>
<path d="M23.8257 37.4093V39.7927H25.7849L27.9057 42.277L29.5878 41.0439L26.3302 37.4093H23.8257Z" fill="#B4F048"/>
</svg>
