<svg width="763" height="395" viewBox="0 0 763 395" fill="none" xmlns="http://www.w3.org/2000/svg">
<path d="M754.376 394.348L3.9385 390.632C0.515838 390.616 -1.26819 386.549 1.03981 384.018L46.3091 334.408C50.9571 329.313 57.5345 326.412 64.4318 326.412H702.202C709.736 326.412 716.869 329.757 721.696 335.544L760.269 381.864C764.402 386.836 760.842 394.38 754.376 394.348Z" fill="#E1E2E9"/>
<path d="M218.634 378.957C198.156 378.957 183.169 378.765 176.503 378.31C134.263 375.43 117.942 361.99 110.262 357.184C102.581 352.377 118.903 344.71 118.903 344.71L208.182 337.268H615.216C615.216 337.268 699.696 340.87 707.389 344.71C715.056 348.55 705.456 365.83 693.056 370.63C686.176 373.297 656.402 373.889 631.282 373.889C611.202 373.889 594.096 373.51 594.096 373.51C594.096 373.51 327.904 378.957 218.634 378.957Z" fill="#E1E2E9"/>
<path d="M516.108 312.789C517.868 311.646 520.841 305.739 523.655 299.406C523.388 299.17 523.188 298.989 523.055 298.869C519.841 295.647 485.559 245.161 471.751 228.393C473.868 237.209 478.398 253.83 483.062 256.627C489.462 260.467 486.26 270.069 483.062 271.927C479.862 273.787 471.54 271.927 471.54 271.927C467.7 276.347 474.1 290.547 471.54 303.347C470.479 308.659 467.322 312.591 463.992 315.377C468.442 318.358 473.811 320.834 479.14 320.947C490.42 321.187 512.015 315.429 516.108 312.789Z" fill="#5B453B"/>
<path d="M395.275 126.069C409.163 119.78 422.863 115.04 433.215 111.841C420.158 93.757 410.744 80.7558 410.744 80.7558L361.452 29.6718C354.047 37.5624 343.811 49.1984 337.783 59.1677C330.644 70.9784 329.107 89.1851 328.828 99.1344L329.143 99.1877C334.207 100.454 346.783 128.012 358.891 155.17C367.028 145.529 379.626 133.153 395.275 126.069Z" fill="#EFCAA6"/>
<path d="M174.583 329.587C174.583 329.587 187.061 343.027 194.743 345.907C197.939 347.106 202.964 349.137 207.743 351.098C220.616 351.651 232.699 351.449 233.141 348.789C234.103 343.027 214.903 343.987 209.141 342.069C203.383 340.149 191.863 330.547 179.383 319.027C173.924 313.99 177.463 297.021 183.252 279.277C175.831 290.765 169.781 301.591 169.781 306.547C169.781 318.069 174.583 329.587 174.583 329.587Z" fill="#E2BD9F"/>
<path d="M194.742 345.907C187.06 343.027 174.582 329.587 174.582 329.587C174.582 329.587 169.78 318.069 169.78 306.547C169.78 301.591 175.83 290.765 183.251 279.277C193.076 264.069 205.312 247.697 209.14 242.227C214.758 234.205 238.467 209.427 247.79 197.018C238.559 191.23 228.603 185.103 225.14 183.398C220.34 181.031 208.696 168.925 201.775 161.462C199.73 165.61 198.266 168.681 197.622 170.227C192.822 181.747 163.06 229.747 161.14 233.587C159.222 237.429 141.942 292.149 140.982 304.627C140.022 317.107 123.702 345.907 125.622 356.467C127.542 367.027 173.622 358.387 190.902 361.267C208.182 364.149 220.662 356.467 220.662 356.467C220.662 356.467 214.444 353.85 207.742 351.098C202.963 349.137 197.938 347.106 194.742 345.907Z" fill="#EFCAA6"/>
<path d="M536.495 262.387C540.335 264.307 558.575 281.587 570.109 293.107C580.349 303.361 606.562 341.722 616.269 350.042C638.135 348.195 673.869 344.743 671.855 342.069C668.975 338.227 620.975 341.107 615.229 337.267C609.455 333.429 530.735 238.387 530.735 238.387L496.805 200.382C503.783 210.215 508.842 217.45 510.575 220.149C519.229 233.587 532.669 260.467 536.495 262.387Z" fill="#E8C2A3"/>
<path d="M692.975 357.429C690.109 352.628 624.815 351.668 619.055 351.668C618.429 351.668 617.469 351.071 616.269 350.042C606.562 341.722 580.349 303.361 570.109 293.108C558.575 281.588 540.335 264.308 536.495 262.388C532.669 260.468 519.229 233.588 510.575 220.149C508.842 217.45 503.783 210.216 496.805 200.382C484.883 183.59 467.369 159.213 451.242 136.832C444.983 138.524 436.879 141.465 433.633 145.908C428.022 153.588 417.629 197.834 428.95 211.188C433.593 216.664 439.543 219.153 444.951 220.188C452.73 221.674 449.141 221.827 449.141 221.827L451.389 223.661C458.643 223.09 464.682 222.681 466.421 223.027C471.222 223.987 519.229 295.028 523.055 298.869C523.189 298.989 523.389 299.17 523.655 299.406C532.042 306.646 609.615 366.069 614.255 366.069C619.055 366.069 695.855 362.228 692.975 357.429Z" fill="#EFCAA6"/>
<path d="M361.452 29.6715L348.928 16.6927C338.993 6.39669 325.419 0.338016 311.113 0.0206823C300.565 -0.211318 288.461 1.46068 278.264 7.98735C254.264 23.3487 254.264 55.0274 253.304 59.1674C252.473 62.7514 214.955 134.719 201.777 161.462C208.699 168.925 220.343 181.031 225.143 183.398C228.605 185.103 238.561 191.23 247.792 197.018C249.623 194.579 250.911 192.609 251.384 191.347C254.264 183.667 301.304 122.227 305.143 118.387C308.932 114.599 321.127 97.7421 328.828 99.1341C329.107 89.1848 330.644 70.9781 337.783 59.1674C343.811 49.1981 354.047 37.5621 361.452 29.6715Z" fill="#667FF3"/>
<path d="M483.062 256.628C478.398 253.83 473.869 237.209 471.751 228.393C469.098 225.168 467.195 223.182 466.421 223.028C464.682 222.681 458.643 223.09 451.389 223.661C449.359 223.821 447.238 223.993 445.083 224.165C445.074 224.985 445.031 225.764 444.957 226.489C444.75 228.478 444.275 230.038 443.381 230.709C439.541 233.588 434.443 233.588 433.633 242.228C432.821 250.869 433.633 267.188 433.633 267.188C433.633 267.188 428.502 268.388 428.981 270.308C429.462 272.228 445.115 281.348 445.087 284.948C445.062 288.548 445.541 299.588 453.942 306.069C455.207 308.094 459.025 312.05 463.993 315.377C467.322 312.592 470.479 308.66 471.541 303.348C474.101 290.548 467.701 276.348 471.541 271.928C471.541 271.928 479.862 273.788 483.062 271.928C486.261 270.069 489.462 260.468 483.062 256.628Z" fill="#E2BD9F"/>
<path d="M444.953 220.187C439.545 219.153 433.595 216.663 428.952 211.187C417.631 197.834 428.024 153.587 433.635 145.907C436.881 141.465 444.985 138.523 451.244 136.831C444.871 127.989 438.721 119.465 433.215 111.841C422.863 115.039 409.163 119.779 395.275 126.069C379.625 133.153 367.028 145.529 358.891 155.17C365.147 169.203 371.279 183.13 376.184 193.267C390.584 223.027 412.664 223.027 418.423 224.947C421.511 225.977 433.699 225.075 445.085 224.165C447.24 223.993 449.361 223.821 451.391 223.661L461.453 222.978C461.453 222.978 452.732 221.674 444.953 220.187Z" fill="#667FF3"/>
</svg>
