<svg width="763" height="583" viewBox="0 0 763 583" fill="none" xmlns="http://www.w3.org/2000/svg">
<path d="M754.374 582.933L3.939 579.227C0.514467 579.2 -1.2678 575.133 1.04007 572.614L46.3087 523C50.9567 517.907 57.5349 515 64.4311 515H702.2C709.73 515 716.871 518.347 721.691 524.133L760.262 570.454C764.402 575.427 760.845 582.974 754.374 582.933Z" fill="#E1E2E9"/>
<path d="M486.355 495.933C486.355 495.933 470.515 488.733 465.715 487.773C460.915 486.813 454.675 489.693 451.795 491.853C448.915 494.013 439.795 484.893 437.395 485.373C434.995 485.853 435.956 492.573 433.076 492.573C430.196 492.573 424.915 490.653 424.435 492.573C421.369 495.746 420.115 494.493 419.155 495.933C418.195 497.373 417.715 501.213 414.835 501.213C412.822 501.213 411.275 502.613 410.529 503.467C410.209 503.827 410.075 504.306 410.155 504.773C410.702 507.867 412.849 520.413 412.435 523.773C411.955 527.613 400.435 528.573 396.595 523.773C392.755 518.973 384.688 545.373 384.688 545.373V567C384.688 567 419.155 563.613 427.315 564.093C435.475 564.573 454.195 559.293 456.595 557.853C458.995 556.413 464.276 545.373 464.276 545.373L486.355 495.933Z" fill="#EFCAA6"/>
<path d="M482.021 494.013C482.021 494.013 486.515 487.613 492.915 494.013C499.315 500.413 514.035 519.76 514.035 526.4C514.035 533.053 514.035 541.373 514.035 541.373C514.035 541.373 520.435 536.893 523.635 544.573C526.835 552.253 528.755 558.013 524.915 562.493C521.075 566.973 519.155 568.253 514.035 569.853C508.915 571.453 440.448 570.76 431.475 567.453C422.502 564.146 416.115 561.853 421.875 559.933C427.635 558.013 453.701 561.467 456.595 557.853C459.488 554.24 465.395 547.773 462.835 539.453C460.275 531.133 466.675 531.92 466.675 526.4C466.675 520.893 469.808 511.293 473.355 510.013C476.915 508.733 485.875 508.6 483.955 501.306C482.021 494.013 482.021 494.013 482.021 494.013Z" fill="#5B453B"/>
<path d="M384.579 454.107C384.024 444.588 372.661 418.612 370.96 417.697C370.357 417.37 368.437 410.563 366.256 401.38C347.059 401.885 316.243 400.537 316.243 400.537L301.767 398.004C307.12 402.012 311.028 404.35 311.028 404.35L299.474 439.418L310.377 478.088L382.168 482.225C382.168 482.225 385.132 463.625 384.579 454.107Z" fill="#EFCAA6"/>
<path d="M346.244 56.9171C346.244 62.6758 335.364 128.596 335.364 128.596C335.364 128.596 334.724 190.036 337.284 195.796C339.844 201.556 343.044 209.876 342.404 237.396C342.379 238.436 342.331 239.572 342.265 240.777C344.245 240.39 346.213 239.986 347.997 239.61C347.496 227.097 345.912 215.033 344.324 206.036C342.404 195.156 343.044 129.876 344.324 115.796C345.604 101.716 343.684 80.5958 348.164 71.6371C352.636 62.6918 376.905 16.1904 381.073 14.7251C378.647 15.6731 376.512 16.8851 375.044 18.5158C369.284 24.9171 346.244 51.1558 346.244 56.9171Z" fill="#E2BD9F"/>
<path d="M363.183 3.79591C344.284 14.0359 322.564 17.2359 314.884 21.7159C307.204 26.1972 316.804 53.0772 317.444 67.7959C318.084 82.5159 296.964 120.276 292.484 140.116C283.524 200.917 297.604 209.236 289.924 234.197C289.466 235.688 288.976 237.395 288.463 239.277C294.316 238.417 300.111 237.787 303.364 238.036C309.408 238.501 317.926 240.976 324.752 242.06C327.322 242.469 329.659 242.687 331.524 242.516C334.136 242.279 338.22 241.567 342.266 240.777C342.331 239.572 342.379 238.436 342.404 237.396C343.044 209.876 339.844 201.556 337.284 195.796C334.724 190.036 335.364 128.596 335.364 128.596C335.364 128.596 346.244 62.6759 346.244 56.9172C346.244 51.1559 369.284 24.9172 375.044 18.5159C376.512 16.8852 378.647 15.6732 381.074 14.7252C388.171 11.9532 397.783 11.4639 400.644 9.55594C404.484 6.99594 382.084 -6.44409 363.183 3.79591Z" fill="#EFCAA6"/>
<path d="M332.165 364.116C334.433 367.972 340.803 375.012 348.165 382.484C348.165 350.588 348.165 260.097 348.165 247.499C348.165 244.865 348.103 242.229 347.998 239.611C346.214 239.987 344.246 240.391 342.266 240.777C340.585 271.487 326.006 353.647 332.165 364.116Z" fill="#546DE0"/>
<path d="M348.165 382.484C340.804 375.012 334.433 367.972 332.165 364.116C326.006 353.646 340.585 271.486 342.266 240.777C338.221 241.566 334.137 242.278 331.525 242.516C329.66 242.686 327.322 242.469 324.753 242.06C317.926 240.976 309.409 238.501 303.365 238.036C300.112 237.787 294.317 238.417 288.464 239.277C280.389 268.916 266.245 343.316 266.245 343.316C266.245 343.316 252.325 371.637 258.085 404.276C262.24 427.824 293.876 432.637 311.178 433.49L324.588 427.477C324.588 427.477 350.868 411.326 366.485 400.152C360.838 394.968 354.177 388.588 348.165 382.484Z" fill="#667FF3"/>
<path d="M350.993 500.702C350.993 500.702 318.063 510.535 313.511 517.029C308.958 523.522 290.149 534.086 290.149 534.086L249.106 537.733C249.106 537.733 308.573 463.239 307.729 451.661C306.886 440.081 295.116 426.015 280.727 416.138C266.337 406.264 283.413 429.256 283.413 429.256C283.413 429.256 260.676 422.793 254.362 414.776C248.047 406.76 244.168 407.424 244.409 412.05C244.651 416.678 258.545 436.141 263.289 437.348C268.033 438.554 287.513 442.925 289.232 446.86C290.952 450.794 291.687 455.157 290.15 457C288.613 458.844 217.163 532.717 215.609 544.172C214.056 555.627 208.387 563.025 213.131 564.231C217.875 565.437 228.346 567.42 228.346 567.42C228.346 567.42 300.68 572.12 305.044 571.384C309.406 570.649 376.188 567.5 376.188 567.5L377.02 517.908L350.993 500.702Z" fill="#EFCAA6"/>
<path d="M387.688 539C387.688 539 389.825 537.203 390.415 536.331C394.285 530.658 408.225 509.647 407.926 501.976C407.579 493.064 395.451 475.008 388.857 465.91C382.262 456.813 384.577 449.107 384.577 449.107C384.577 449.107 339.206 464.775 333.36 463.138C327.513 461.501 308.698 467.897 306.476 461.758C304.255 455.619 305.061 493.833 305.061 493.833L317.688 515.5C317.688 515.5 338.384 504.601 354.965 513.5C371.546 522.399 372.052 529.3 371.245 530.493C370.438 531.685 376.622 557.5 373.467 562.936C371.688 566 371.188 568 371.188 568L353.872 567.114C354.219 567.301 370.809 567.888 371.188 568L387.915 567.114C387.915 567.114 385.462 556 387.188 543.5C386.462 539.5 387.688 539 387.688 539Z" fill="#546DE0"/>
</svg>
