<svg width="763" height="709" viewBox="0 0 763 709" fill="none" xmlns="http://www.w3.org/2000/svg">
<path d="M754.374 708.535L3.939 704.828C0.514467 704.802 -1.2678 700.735 1.04007 698.215L46.3087 648.602C50.9567 643.509 57.5349 640.602 64.4311 640.602H702.2C709.73 640.602 716.871 643.949 721.691 649.735L760.262 696.056C764.402 701.028 760.845 708.575 754.374 708.535Z" fill="#E1E2E9"/>
<path d="M457.12 299.922C457.12 299.922 513.504 312.771 533.172 299.922C538.418 296.251 521.634 249.046 516.388 239.604C511.143 230.164 508.52 177.191 508.52 160.931C508.52 144.672 494.36 76.4884 498.031 65.4751C501.703 54.4604 512.192 56.0338 512.716 43.9698C513.242 31.9071 513.766 22.9897 511.668 22.9897C509.57 22.9897 505.898 32.9551 505.898 32.9551C505.898 32.9551 510.094 4.10844 507.472 1.48578C504.85 -1.13556 490.688 -0.611593 486.492 5.68174C482.296 11.9764 477.051 47.6418 476.264 49.7391C475.478 51.8378 476.527 59.7058 478.624 65.9978C480.723 72.2924 479.15 118.447 479.15 118.447C479.15 118.447 473.38 178.763 476.264 187.155C479.15 195.547 478.624 252.194 484.919 264.78C491.212 277.368 452.926 295.202 452.926 295.202L457.12 299.922Z" fill="#EFCAA6"/>
<path d="M423.671 414.303C429.847 412.162 452.925 413.854 452.925 413.854L432.043 299.397C432.043 299.397 400.296 322.475 387.273 324.047C382.075 324.677 375.351 324.386 366.719 324.645C375.049 346.365 396.045 397.739 416.957 422.189C418.773 418.474 421.117 415.187 423.671 414.303Z" fill="#EFCAA6"/>
<path d="M555.2 368.105C555.2 368.105 566.739 391.183 567.264 403.77C567.788 416.359 565.691 432.094 564.641 449.402C563.592 466.71 557.905 512.866 561.273 515.487C564.641 518.11 570.411 525.453 571.459 538.565C572.508 551.682 569.361 588.922 574.607 597.309C579.851 605.695 587.719 626.682 595.061 635.069C602.404 643.469 590.341 641.362 590.341 641.362C590.341 641.362 591.391 666.535 589.292 671.789C587.195 677.029 580.123 681.749 576.316 680.709C572.508 679.656 561.675 674.402 559.748 648.189C557.823 621.962 562.543 609.896 555.2 592.069C547.857 574.229 533.696 539.614 533.696 517.061C533.696 494.507 528.452 438.913 528.976 428.946C529.5 418.982 502.752 407.442 502.752 407.442L534.221 375.449L555.2 368.105Z" fill="#EFCAA6"/>
<path d="M610.01 262.683C610.01 262.683 624.171 263.962 640.692 275.517C657.214 287.071 662.722 331.129 647.774 340.57C646.2 346.077 659.714 349.546 656.498 360.793C653.28 372.039 641.259 381.481 633.502 378.333C625.744 375.186 626.531 360.561 623.384 360.793C620.238 361.026 598.208 365.746 588.768 364.171C579.327 362.598 581.687 352.15 573.034 351.869C564.379 351.585 564.379 351.585 564.379 351.585L610.687 275.517L610.01 262.683Z" fill="#5B453B"/>
<mask id="mask0_214_6893" style="mask-type:luminance" maskUnits="userSpaceOnUse" x="564" y="262" width="93" height="117">
<path d="M610.01 262.683C610.01 262.683 624.171 263.962 640.692 275.517C657.214 287.071 662.722 331.129 647.772 340.57C646.199 346.077 659.714 349.546 656.498 360.793C653.28 372.039 641.259 381.479 633.502 378.333C625.744 375.186 626.531 360.561 623.384 360.793C620.238 361.026 598.208 365.746 588.768 364.171C579.327 362.598 581.687 352.15 573.032 351.867C564.379 351.583 564.379 351.583 564.379 351.583L610.687 275.517L610.01 262.683Z" fill="white"/>
</mask>
<g mask="url(#mask0_214_6893)">
<path d="M620.755 370.369C620.287 368.203 620.552 366.205 621.11 364.335C621.396 363.403 621.764 362.503 622.218 361.651C622.647 360.785 623.219 359.998 623.932 359.322C625.374 357.965 627.367 357.122 628.712 355.841C630.084 354.569 631.134 353.038 632.074 351.275C632.567 350.422 633.058 349.534 633.659 348.757C634.247 347.962 634.943 347.281 635.647 346.606C637.048 345.251 638.546 343.949 640.287 343.058C642.03 342.173 643.911 341.554 645.863 341.227C647.816 340.914 649.835 340.843 651.92 341.339L652.118 341.965C649.32 345.067 646.612 347.157 643.815 349.106C642.408 350.05 640.863 350.762 639.342 351.581C638.58 351.986 637.843 352.434 637.036 352.81C636.227 353.186 635.375 353.531 634.52 353.902C632.819 354.646 631.3 355.709 630.318 357.218C629.299 358.709 629.066 360.757 628.45 362.405C628.14 363.235 627.726 363.982 627.207 364.67C626.723 365.379 626.19 366.063 625.615 366.737C624.452 368.081 623.196 369.398 621.364 370.611L620.755 370.369Z" fill="#D2948B"/>
</g>
<path d="M617.615 278.418C617.615 278.418 614.731 268.453 609.223 267.142C603.717 265.83 593.489 272.386 590.342 271.599C587.195 270.813 571.459 269.501 570.674 270.813C569.887 272.123 571.985 278.155 569.625 278.418C568.118 278.586 565.754 278.539 564.243 278.483C563.358 278.451 562.537 278.929 562.121 279.71L560.446 282.875C560.446 282.875 555.463 280.778 554.677 282.875C553.89 284.974 554.939 286.547 552.841 287.071C550.743 287.595 546.809 288.907 547.071 291.267C547.334 293.629 551.53 316.706 549.694 317.492C547.858 318.28 528.453 301.233 523.207 304.643C517.962 308.051 488.066 314.083 486.755 318.803C485.443 323.525 476.265 350.535 476.265 350.535C476.265 350.535 477.314 396.166 499.867 394.593C522.421 393.019 562.806 386.987 562.019 386.201C561.321 385.502 553.501 367.006 564.379 351.585C572.287 340.374 584.775 338.302 587.195 337.947C589.077 338.678 593.278 339.985 598.209 338.734C600.095 338.257 603.49 337.395 605.814 334.275C607.81 331.598 609.162 327.059 607.126 324.047C606.082 322.505 604.487 321.868 603.134 321.325C600.058 320.094 597.251 320.387 595.849 320.639C595.482 320.873 593.321 322.227 592.178 321.426C591.634 321.045 591.55 320.339 591.391 318.017C591.277 316.349 591.191 314.85 591.129 313.558C594.595 312.898 599.355 311.446 603.979 308.051C617.389 298.205 617.621 280.839 617.615 278.418Z" fill="#EFCAA6"/>
<path d="M534.173 296.513C536.589 300.909 543.198 306.761 541.093 312.33C538.485 319.231 531.315 319.213 525.418 327.022C521.598 332.078 517.247 341.822 520.417 348.953C526.569 362.795 559.749 363.797 559.749 363.797V372.898C550.183 376.591 542.458 380.186 536.881 382.959C528.607 387.073 524.427 389.181 522.289 391.707C515.667 399.533 515.205 410.89 510.53 411.262C510.53 411.262 510.247 411.285 505.898 411.114L445.058 414.262C445.058 414.262 437.715 416.883 432.994 380.694C428.274 344.503 420.407 310.935 425.127 304.118C429.847 297.299 462.891 289.431 462.891 289.431C462.891 289.431 463.089 292.983 465.782 296.451C470.967 303.129 481.51 302.727 491.71 302.019C503.433 301.206 515.03 299.873 534.173 296.513Z" fill="#667FF3"/>
<path d="M213.495 514.438C210.574 509.246 207.787 499.633 205.521 490.13C190.427 507.068 155.201 557.949 142.689 583.669C128.527 612.776 105.713 646.616 97.0579 652.122C88.4033 657.629 72.6694 670.216 78.9631 673.362C85.2579 676.509 103.351 678.869 110.433 676.509C117.513 674.149 118.299 665.495 124.594 664.709C130.887 663.922 128.527 651.335 133.247 645.042C137.969 638.749 199.334 575.016 204.054 567.936C208.259 561.629 216.218 549.402 233.474 531.369C226.895 527.901 217.765 522.03 213.495 514.438Z" fill="#EFCAA6"/>
<path d="M613.944 647.402C610.01 645.042 510.882 562.429 510.882 562.429C510.882 562.429 500.654 555.349 499.08 549.056C498.783 547.868 495.566 543.141 490.54 536.245C488.572 542.793 485.775 550.176 482.559 552.989C479.119 556.002 467.464 561.349 457.594 565.589C463.463 570.922 467.61 575.016 468.398 576.589C471.544 582.882 480.939 604.122 493.55 610.416C506.16 616.709 569.887 655.269 569.887 655.269C569.887 655.269 570.159 676.242 576.316 680.709C582.475 685.162 616.304 677.816 628.892 680.709C641.479 683.589 669.015 681.562 672.162 682.176C675.31 682.802 617.878 649.762 613.944 647.402Z" fill="#EFCAA6"/>
<path d="M490.54 536.245C468.955 506.619 413.965 436.893 413.326 434.979C412.865 433.594 414.38 427.458 416.958 422.189C396.046 397.739 375.05 346.365 366.719 324.645C353.73 325.033 336.412 326.661 313.41 334.539C275.122 347.65 220.575 477.462 210.347 485.329C209.157 486.246 207.511 487.897 205.521 490.13C207.787 499.633 210.574 509.246 213.495 514.438C217.764 522.03 226.895 527.901 233.474 531.369C235.59 529.157 237.838 526.863 240.244 524.478C262.272 502.638 322.851 431.045 322.851 431.045C322.851 431.045 396.018 514.438 402.312 519.158C407.03 522.698 440.032 549.655 457.594 565.589C467.464 561.349 479.119 556.002 482.559 552.989C485.775 550.175 488.572 542.793 490.54 536.245Z" fill="#667FF3"/>
</svg>
