<svg width="775" height="457" viewBox="0 0 775 457" fill="none" xmlns="http://www.w3.org/2000/svg">
<path d="M757.069 456.159L6.63894 452.445C3.20054 452.427 1.4368 448.359 3.734 445.831L49.0111 396.22C53.65 391.125 60.2304 388.223 67.122 388.223H704.9C712.429 388.223 719.572 391.568 724.389 397.357L762.952 443.676C767.102 448.646 763.545 456.19 757.069 456.159Z" fill="#E1E2E9"/>
<path d="M142.374 82.0451C142.374 82.0451 128.934 83.9651 125.574 82.0451C122.214 80.1251 52.6139 51.2479 48.2939 52.0066C43.9739 52.7652 43.4939 54.5785 38.6939 51.9919C33.8939 49.4052 7.01391 27.8051 8.93391 25.4051C10.8539 23.0051 52.614 28.2851 54.054 30.2051C55.494 32.1251 59.374 35.4851 63.7873 36.4451C68.214 37.4051 134.694 53.8451 134.694 53.8451L152.454 73.4051L142.374 82.0451Z" fill="#E8C2A3"/>
<path d="M132.294 75.625C132.294 75.625 138.907 93.0303 155.974 93.245C166.534 93.3783 169.734 99.965 171.334 99.645C172.934 99.325 175.174 96.125 177.414 96.125C179.654 96.125 181.894 98.685 182.534 97.725C183.174 96.765 185.414 98.045 185.414 98.045C185.414 98.045 187.334 94.845 191.814 94.845C194.694 95.805 196.614 97.085 198.534 95.165C200.454 93.245 203.974 79.485 202.374 77.565C200.774 75.645 207.934 76.4796 212.347 77.8223C216.761 79.165 224.134 81.725 224.134 81.725L221.894 52.605L182.534 40.765L167.174 52.925C167.174 52.925 166.534 55.805 169.414 57.725C172.294 59.645 174.534 61.565 174.534 61.565C174.534 61.565 166.214 60.2851 164.294 60.2851C162.374 60.2851 151.814 62.845 149.894 63.805C147.974 64.765 146.374 61.885 143.494 62.845C140.614 63.805 132.294 75.625 132.294 75.625Z" fill="#E2BD9F"/>
<path d="M133.734 78.5835C133.734 78.5835 127.174 77.2449 123.014 60.2849C118.854 43.3249 132.294 24.4448 139.014 21.2448C145.734 18.0448 169.734 17.4049 169.734 17.4049C169.001 16.7782 168.121 15.8196 168.201 14.7422C168.334 13.2809 170.147 12.8195 171.601 11.3155C174.214 8.62753 172.614 5.77691 174.214 3.32491C176.814 -0.652426 186.427 -1.4524 192.534 3.08493C197.467 6.7476 198.361 12.5755 198.534 14.3649C198.961 18.5569 197.641 21.8183 196.934 23.4849C191.534 36.3876 169.534 51.3462 167.174 52.9249C168.401 53.0956 170.747 53.6009 172.854 55.4049C174.894 57.1355 176.761 60.1155 175.974 61.1649C175.494 61.8142 174.134 61.5303 173.307 61.3796C172.054 61.1516 158.467 58.6689 152.214 63.0849C151.387 63.6729 149.361 65.3182 148.094 64.6595C147.614 64.4102 147.574 64.0062 147.161 63.6209C145.761 62.3555 142.694 63.5782 141.961 63.8715C136.601 66.0089 133.867 77.9662 133.734 78.5835Z" fill="#5B453B"/>
<path d="M212.681 52.0063L119.334 49.4049C119.334 49.4049 54.5338 33.5649 50.2138 34.0449C45.8938 34.5249 31.0138 33.5437 26.2138 34.0343C21.4138 34.525 13.2539 32.1249 8.45395 29.2449C3.65395 26.3649 -0.666129 24.4449 0.773871 23.0049C2.21387 21.5649 -1.22608 18.2049 0.493923 18.2049C2.21392 18.2049 6.5339 15.8049 6.5339 15.8049L26.6939 13.4049C26.6939 13.4049 46.374 21.085 49.254 20.125C52.134 19.165 122.214 17.725 125.574 18.685C128.934 19.645 149.574 23.485 152.934 23.485C156.294 23.485 213.894 15.3249 219.174 17.2449C224.454 19.1649 234.054 33.749 229.734 40.857C225.414 47.965 212.681 52.0063 212.681 52.0063Z" fill="#EFCAA6"/>
<path d="M373.801 230.799C372.948 234.313 372.081 239.419 373.254 242.365C375.174 247.165 368.414 269.565 369.241 273.405C370.054 277.245 365.574 344.445 365.574 344.445C365.574 344.445 360.454 384.445 358.534 387.325C356.614 390.205 350.854 397.885 348.294 399.165C345.734 400.445 326.854 405.885 324.294 406.845C321.734 407.805 298.054 411.325 296.454 415.165C294.854 419.005 323.974 418.365 323.974 418.365C323.974 418.365 350.534 417.165 361.414 418.405C372.294 419.645 387.654 424.125 392.134 421.245C396.614 418.365 389.894 391.165 394.054 374.845C398.214 358.525 410.694 314.365 412.614 305.405C414.534 296.445 413.574 281.405 416.454 260.605C417.814 250.865 419.574 242.621 421.014 236.057C418.361 238.229 415.574 239.453 412.614 239.45C393.801 239.426 380.481 234.193 373.801 230.799Z" fill="#EFCAA6"/>
<path d="M759.174 55.1692C756.287 52.7689 737.566 38.8494 736.614 33.5696C735.647 28.2899 735.171 14.8494 723.162 11.0086C711.168 7.16932 701.093 26.3687 693.4 27.33C685.721 28.2898 638.206 35.0085 633.891 35.4892C629.561 35.9698 600.766 36.449 595.483 37.8895C590.201 39.3285 563.802 51.3285 560.454 52.2898C557.09 53.2496 552.284 53.7287 547.001 55.6483C545.141 56.3299 543.013 57.2525 540.93 58.1395C543.489 62.2436 546.272 66.5055 548.921 70.2139C550.885 72.9445 552.254 76.3151 553.192 79.888C554.858 83.693 555.513 90.437 555.707 97.2168C556.436 96.9861 557.076 96.7347 557.567 96.449C560.93 94.5293 583.013 83.4892 586.852 82.5294C590.692 81.5695 645.409 63.8092 645.409 63.8092C645.409 63.8092 688.132 56.6083 701.093 54.6886C714.04 52.769 733.251 62.3687 735.647 62.8493C738.043 63.3285 753.4 69.2094 760.602 75.6291C767.804 82.0487 770.2 92.6082 773.563 87.8091C776.927 83.0085 762.046 57.5695 759.174 55.1692Z" fill="#E2BD9F"/>
<path d="M553.213 80.5464C552.942 80.5464 552.699 80.395 552.591 80.1477C550.902 76.3047 546.659 68.8185 540.335 58.4973C540.227 58.3284 540.2 58.1204 540.267 57.9325C540.335 57.7447 540.47 57.5947 540.659 57.5244C540.957 57.4136 541.348 57.5095 541.497 57.7784C544.429 62.4742 547.132 66.5241 549.483 69.8185C551.348 72.3927 552.807 75.7209 553.848 79.7099C553.942 80.0464 553.753 80.3937 553.429 80.5085L553.213 80.5464Z" fill="#4A4A49"/>
<path d="M443.973 61.8849C440.333 54.9542 428.787 47.6115 419.533 42.5755C401.24 41.6742 376.613 46.5249 376.613 46.5249L370.853 47.0048C367.813 48.8328 355.013 45.9676 352.133 52.0063C349.253 58.0449 358.853 121.405 363.173 124.765C367.493 128.125 369.413 179.965 373.253 186.685C377.093 193.405 374.853 227.005 374.853 227.005C374.853 227.005 374.333 228.589 373.8 230.8C380.48 234.193 393.8 239.426 412.613 239.45C415.573 239.453 418.36 238.229 421.013 236.057C422.64 228.605 423.84 223.328 423.493 220.605C422.853 215.485 439.013 118.525 439.013 118.525C439.013 118.525 439.387 118.543 440.027 118.571C442.587 109.546 446.347 96.3662 447.173 93.8849C448.453 90.0449 450.373 74.0449 443.973 61.8849Z" fill="#667FF3"/>
<path d="M473.583 118.043C479.343 116.123 528.773 107.484 540.293 100.763C543.821 99.2025 550.825 98.5927 555.124 97.3853C555.138 92.3477 554.759 85.835 553.204 79.882C551.122 75.1648 545.809 66.1523 540.887 58.151C537.088 59.7545 533.343 61.2309 531.18 60.9226C527.813 60.4426 459.184 59.4827 457.738 58.5228C456.291 57.5628 446.219 47.4834 428.453 43.6423C425.803 43.0663 422.761 42.7323 419.543 42.5741C428.791 47.6091 440.337 54.952 443.974 61.8825C450.383 74.0426 448.463 90.0424 447.178 93.8835C446.354 96.3645 442.595 109.544 440.026 118.57C445.137 118.802 468.459 119.749 473.583 118.043Z" fill="#546DE0"/>
<path d="M204.614 52.0064C204.614 52.0064 223.067 64.553 219.654 75.625C218.294 80.045 210.454 77.3184 210.454 77.3184C210.454 77.3184 243.654 115.645 254.214 118.525C264.774 121.405 307.014 110.845 323.334 118.525C328.614 119.037 361.734 125.725 363.174 124.765C364.614 123.805 352.134 93.565 353.574 80.605C355.014 67.645 358.854 51.325 367.974 47.005C377.094 42.685 317.094 48.925 304.134 42.205C291.174 35.485 229.254 9.08497 221.094 11.005C212.934 12.925 202.374 17.725 202.374 17.725C202.374 17.725 214.854 14.8449 221.574 24.4449C228.294 34.0449 222.494 46.945 220.134 48.925C218.614 50.205 204.614 52.0064 204.614 52.0064Z" fill="#546DE0"/>
</svg>
