<svg width="763" height="749" viewBox="0 0 763 749" fill="none" xmlns="http://www.w3.org/2000/svg">
<path d="M754.374 748.203L3.939 744.496C0.514467 744.469 -1.2678 740.403 1.04007 737.883L46.3087 688.269C50.9567 683.176 57.5349 680.269 64.4311 680.269H702.2C709.73 680.269 716.871 683.616 721.691 689.403L760.262 735.723C764.402 740.696 760.845 748.243 754.374 748.203Z" fill="#E1E2E9"/>
<path d="M401.043 54.7006C393.403 41.9288 375.257 40.1961 368.452 40.0098V40.0064C368.452 40.0064 367.97 39.9842 367.133 39.9859C366.292 39.9842 365.807 40.0064 365.807 40.0064V40.0098C359.004 40.1961 340.862 41.9288 333.222 54.7006C323.726 70.5772 336.015 128.778 365.616 128.778H368.652C398.251 128.778 410.537 70.5772 401.043 54.7006Z" fill="#F8C7A2"/>
<path d="M332.573 76.3373C332.573 76.3373 329.084 73.6921 325.719 76.3323C322.356 78.9758 322.985 83.3948 326.965 85.5342C330.952 87.6788 332.076 86.1529 332.076 86.1529L332.784 80.5359L332.573 76.3373Z" fill="#F8C7A2"/>
<path d="M325.886 81.0298L325.432 80.8093C326.794 77.5318 330.312 77.7659 330.348 77.771L330.312 78.3076C330.182 78.2973 327.106 78.0974 325.886 81.0298Z" fill="#BB7D43"/>
<path d="M329.476 82.9675C327.875 82.1781 327.475 78.8014 327.465 78.6562L327.955 78.5947C327.962 78.6237 328.335 81.8175 329.685 82.4788L329.476 82.9675Z" fill="#BB7D43"/>
<path d="M402.291 75.8658C402.291 75.8658 405.781 73.2189 409.145 75.8556C412.507 78.5026 411.885 82.9198 407.9 85.0593C403.913 87.2039 402.789 85.6762 402.789 85.6762L402.081 80.0593L402.291 75.8658Z" fill="#F8C7A2"/>
<path d="M408.978 80.553L409.435 80.3342C408.071 77.055 404.552 77.2925 404.517 77.296L404.552 77.8308C404.682 77.8222 407.76 77.6241 408.978 80.553Z" fill="#BB7D43"/>
<path d="M405.39 82.4961C406.989 81.7032 407.389 78.3266 407.403 78.1847L406.911 78.1164C406.902 78.1489 406.525 81.341 405.18 82.0074L405.39 82.4961Z" fill="#BB7D43"/>
<path d="M368.326 23.7415C319.787 23.7415 328.061 75.3018 328.061 75.3018C329.685 75.1583 332.072 75.6384 332.072 75.6384L332.783 71.5304C333.529 68.1145 334.955 63.2922 337.487 59.9856C337.487 59.9856 336.021 62.9846 336.029 66.2399C336.029 66.2399 346.961 62.1199 360.266 64.6473L361.175 57.0737L362.68 64.4491C362.68 64.4491 369.034 65.6179 377.955 63.868V57.8496L381.076 63.4801C381.076 63.4801 394.816 62.8889 400.77 68.5229C400.77 68.5229 401.525 64.1124 401.06 61.9422C401.641 63.5639 402.95 67.4343 403.764 71.4774L404.003 75.6384C404.003 75.6384 407.402 74.1107 408.504 75.6384C408.504 75.6384 418.152 23.7415 368.326 23.7415Z" fill="#5B453B"/>
<path d="M346.918 30.6948C346.918 30.6948 346.554 30.2266 346.004 29.4063C343.697 25.9306 338.223 16.0981 344.006 8.16911C351.159 -1.63783 384.021 -3.75677 391.706 8.16911C399.392 20.0933 385.876 32.8137 385.876 32.8137L346.918 30.6948Z" fill="#5B453B"/>
<path d="M399.171 150.702C381.849 140.846 380.289 120.276 380.289 120.276L366.611 121.356L352.934 120.276C352.934 120.276 352.055 139.255 334.731 149.109C334.731 149.109 325.463 169.667 326.946 182.64C328.433 195.61 366.611 196.582 366.611 196.582C366.611 196.582 404.786 195.61 406.275 182.64C407.76 169.667 399.171 150.702 399.171 150.702Z" fill="#F8C7A2"/>
<path d="M333.797 660.347C333.797 660.347 334.25 688.442 326.533 699.308C312.666 718.818 303.814 730.229 327.028 730.229C350.246 730.229 355.063 716.81 355.063 701.64C355.063 686.47 355.063 660.347 355.063 660.347H333.797Z" fill="#F9C7A2"/>
<path d="M518.893 416.292C510.542 394.814 415.09 338.739 415.09 338.739L320.36 338.105C320.36 338.105 300.422 414.392 324.894 507.169C324.894 507.169 308.368 626.756 333.204 672.866H354.89C354.89 672.866 365.693 555.681 356.744 523.49L375.283 384.267C407.122 404.948 467.452 420.508 467.452 420.508C413.761 413.35 371.703 445.565 371.703 445.565L381.057 468.979C425.203 467.783 505.036 445.565 505.036 445.565C521.143 433.933 518.893 416.292 518.893 416.292Z" fill="#667FF3"/>
<path d="M361.332 438.518C365.998 440.245 367.117 444.222 371.703 445.565C371.703 445.565 381.324 468.93 381.057 468.979C381.057 468.979 376.016 471.184 370.565 483.602C365.116 496.018 361.946 507.906 362.761 510.741C363.569 513.569 364.851 516.925 361.249 517.848C357.645 518.776 356.409 513.055 354.624 502.294C352.836 491.534 343.385 447.803 346.314 442.88C349.109 438.181 354.875 436.129 361.332 438.518Z" fill="#F9C7A2"/>
<path d="M326.786 153.757C326.786 153.757 322.266 164.229 317.5 179.778C317.5 179.778 303.945 204.224 321.709 237.133C337.749 266.861 316.387 326.236 314.509 337.302C312.633 348.37 420.634 343.269 416.314 337.046C411.986 330.824 391.673 276.186 409.711 237.497C409.711 237.497 428.36 210.516 419.158 183.405C413.177 165.765 409.655 160.087 404.195 153.757L396.757 149.234C396.757 149.234 407.179 175.251 400.277 182.924C393.382 190.605 343.751 191.509 337.59 186.312C331.427 181.116 334.732 149.109 334.732 149.109L326.786 153.757Z" fill="#546DE0"/>
<path d="M363.574 175.427C362.72 184.826 356.312 205.972 352.04 213.662C347.768 221.352 309.746 238.013 297.784 236.731C297.784 236.731 306.11 226.135 313.818 215.646H313.817C309.181 196.582 326.785 153.757 326.785 153.757C326.785 153.757 308.037 155.135 300.348 171.796C292.658 188.457 262.753 249.975 264.035 263.218C265.317 276.461 274.288 277.743 274.288 277.743C274.288 277.743 362.308 241.858 368.494 225.624V167.713C368.494 167.713 364.429 166.029 363.574 175.427Z" fill="#F4B990"/>
<path d="M368.574 175.427C369.428 184.826 375.836 205.972 380.108 213.662C384.38 221.352 422.402 238.013 434.364 236.731C434.364 236.731 427.089 227.556 419.379 217.068C425.566 195.507 404.196 153.757 404.196 153.757C404.196 153.757 424.111 155.135 431.8 171.796C439.49 188.457 469.394 249.975 468.113 263.218C466.831 276.461 457.86 277.743 457.86 277.743C457.86 277.743 369.84 241.858 363.652 225.624V167.713C363.652 167.713 367.719 166.029 368.574 175.427Z" fill="#F4B990"/>
</svg>
